<svg width="18" height="19" viewBox="0 0 18 19" fill="none" xmlns="http://www.w3.org/2000/svg">
<path d="M16.9572 17.4688C15.635 14.9402 13.5156 13.2138 11.0601 12.5914C12.2269 12.0626 13.1916 11.102 13.7892 9.87375C14.3868 8.64551 14.5803 7.22583 14.3367 5.85727C14.0931 4.4887 13.4275 3.25617 12.4535 2.37025C11.4796 1.48433 10.2578 1 8.99682 1C7.73588 1 6.51407 1.48433 5.54013 2.37025C4.56618 3.25617 3.90054 4.4887 3.65693 5.85727C3.41332 7.22583 3.60685 8.64551 4.20447 9.87375C4.80208 11.102 5.76669 12.0626 6.9335 12.5914C4.48121 13.2111 2.35866 14.9402 1.03647 17.4688C0.998196 17.5497 0.989671 17.6439 1.01268 17.7316C1.03568 17.8193 1.08844 17.8938 1.15993 17.9395C1.23142 17.9853 1.31611 17.9986 1.39631 17.9769C1.47651 17.9552 1.54602 17.9 1.59032 17.8229C3.15421 14.8295 5.92505 13.042 8.99682 13.042C12.0686 13.042 14.8394 14.8295 16.4033 17.8229C16.4314 17.8767 16.4718 17.9214 16.5204 17.9525C16.569 17.9835 16.6241 17.9999 16.6802 18C16.7365 18.0002 16.7918 17.9837 16.8403 17.9522C16.9137 17.9052 16.9672 17.8279 16.9891 17.7372C17.011 17.6466 16.9995 17.5501 16.9572 17.4688ZM4.19468 7.02162C4.19468 5.97098 4.47632 4.94393 5.00398 4.07036C5.53165 3.19679 6.28164 2.51592 7.15912 2.11386C8.0366 1.71179 9.00215 1.6066 9.93367 1.81157C10.8652 2.01654 11.7209 2.52247 12.3924 3.26538C13.064 4.00829 13.5214 4.95482 13.7067 5.98527C13.892 7.01572 13.7969 8.08381 13.4334 9.05448C13.07 10.0251 12.4545 10.8548 11.6647 11.4385C10.875 12.0222 9.94659 12.3337 8.99682 12.3337C7.72367 12.3321 6.50308 11.7719 5.60283 10.776C4.70257 9.78018 4.19616 8.42997 4.19468 7.02162Z" fill="#060709" stroke="#060709" stroke-width="0.542683"/>
</svg>
