<svg width="11" height="13" viewBox="0 0 11 13" fill="none" xmlns="http://www.w3.org/2000/svg">
<path d="M5.43753 3.39992C5.43753 3.39992 5.37503 2.33325 6.00003 1.39992L7.75003 0.333252C7.75003 0.333252 7.81253 1.39992 7.18753 2.33325L5.43753 3.39992ZM8.81253 7.13325C8.81253 6.13325 9.31253 5.26659 10.0625 4.73325L9.50003 4.13325C9.18753 3.93325 8.81253 3.66659 8.00003 3.66659C7.12503 3.66659 6.50003 4.26659 5.68753 4.26659C4.87503 4.26659 4.31253 3.73325 3.75003 3.66659C3.31253 3.66659 2.87503 3.66659 2.43753 3.86659C2.12503 3.99992 1.68753 4.33325 1.43753 4.66659C1.06253 5.06659 0.687526 5.93325 0.625026 6.73325C0.562526 7.53325 0.562526 8.13325 0.750026 8.86659C0.875026 9.46659 1.12503 10.0666 1.37503 10.5999C1.56253 10.9999 1.75003 11.3999 2.00003 11.7999C2.18753 12.0666 2.43753 12.3333 2.68753 12.5333C2.87503 12.6666 3.06253 12.7999 3.31253 12.9333C3.43753 12.9333 3.62503 12.9999 3.81253 12.9999C4.18753 12.9333 4.81253 12.3999 5.31253 12.2666C5.56253 12.1999 5.81253 12.1999 6.12503 12.2666C6.56253 12.3333 7.00003 12.8666 7.50003 12.9333C7.87503 12.9999 8.25003 12.9333 8.56253 12.7333C8.81253 12.5999 9.00003 12.3999 9.18753 12.1333C9.43753 11.8666 9.62503 11.5333 9.81253 11.2666C10.0625 10.7999 10.375 10.2666 10.5 9.73325C9.50003 9.33325 8.81253 8.33325 8.81253 7.13325Z" fill="#060709"/>
</svg>
