<svg width="24" height="24" viewBox="0 0 24 24" fill="none" xmlns="http://www.w3.org/2000/svg">
<path d="M7.03122 5.11679V3.30507C7.03122 3.14804 7.21169 3.06132 7.33356 3.15741L17.8992 11.4098C17.989 11.4796 18.0616 11.569 18.1116 11.6711C18.1615 11.7733 18.1875 11.8855 18.1875 11.9992C18.1875 12.1129 18.1615 12.2251 18.1116 12.3273C18.0616 12.4295 17.989 12.5188 17.8992 12.5887L7.33356 20.841C7.20934 20.9371 7.03122 20.8504 7.03122 20.6933V18.8816C7.03122 18.7668 7.08512 18.6566 7.17418 18.5863L15.6117 12.0004L7.17418 5.4121C7.08512 5.34179 7.03122 5.23163 7.03122 5.11679Z" fill="#060709"/>
</svg>
