<svg width="30" height="30" viewBox="0 0 30 30" fill="none" xmlns="http://www.w3.org/2000/svg">
<path d="M5.84766 13.8867L5.39062 15.1465V22.0898H24.6094V15.1465L24.1523 13.8867H5.84766ZM7.73438 18.1934C7.08691 18.1934 6.5625 17.6689 6.5625 17.0215C6.5625 16.374 7.08691 15.8496 7.73438 15.8496C8.38184 15.8496 8.90625 16.374 8.90625 17.0215C8.90625 17.6689 8.38184 18.1934 7.73438 18.1934ZM19.1016 20.3906C19.1016 20.5195 18.9961 20.625 18.8672 20.625H11.1328C11.0039 20.625 10.8984 20.5195 10.8984 20.3906V17.9297C10.8984 17.8008 11.0039 17.6953 11.1328 17.6953H12.3047C12.4336 17.6953 12.5391 17.8008 12.5391 17.9297V18.9844H17.4609V17.9297C17.4609 17.8008 17.5664 17.6953 17.6953 17.6953H18.8672C18.9961 17.6953 19.1016 17.8008 19.1016 17.9297V20.3906ZM22.2656 18.1934C21.6182 18.1934 21.0938 17.6689 21.0938 17.0215C21.0938 16.374 21.6182 15.8496 22.2656 15.8496C22.9131 15.8496 23.4375 16.374 23.4375 17.0215C23.4375 17.6689 22.9131 18.1934 22.2656 18.1934Z" fill="#060709"/>
<path d="M21.0938 17.0215C21.0938 17.3323 21.2172 17.6304 21.437 17.8501C21.6568 18.0699 21.9548 18.1934 22.2656 18.1934C22.5764 18.1934 22.8745 18.0699 23.0943 17.8501C23.314 17.6304 23.4375 17.3323 23.4375 17.0215C23.4375 16.7107 23.314 16.4126 23.0943 16.1928C22.8745 15.9731 22.5764 15.8496 22.2656 15.8496C21.9548 15.8496 21.6568 15.9731 21.437 16.1928C21.2172 16.4126 21.0938 16.7107 21.0938 17.0215Z" fill="#060709"/>
<path d="M28.0956 12.1104L27.4012 10.8975C27.37 10.844 27.3189 10.805 27.2591 10.7891C27.1993 10.7732 27.1356 10.7816 27.0819 10.8125L25.5965 11.6797L23.3026 5.3457C23.1815 4.96776 22.9434 4.63808 22.6227 4.40427C22.302 4.17046 21.9153 4.04462 21.5184 4.04492H8.82409C7.80749 4.04492 6.90514 4.70117 6.59166 5.6709L4.40612 11.6826L2.91784 10.8154C2.86418 10.7845 2.80048 10.7761 2.74065 10.7921C2.68082 10.808 2.62971 10.8469 2.5985 10.9004L1.90416 12.1104C1.83971 12.2217 1.8778 12.3623 1.98913 12.4268L3.75866 13.458L3.33385 14.6299C3.2987 14.7236 3.28112 14.8232 3.28112 14.9229V25.124C3.28112 25.584 3.62682 25.9561 4.05163 25.9561H6.03209C6.39245 25.9561 6.70592 25.6836 6.78209 25.3027L7.00768 24.1982H22.9921L23.2176 25.3027C23.2967 25.6836 23.6073 25.9561 23.9676 25.9561H25.9481C26.3729 25.9561 26.7186 25.584 26.7186 25.124V14.9229C26.7186 14.8232 26.701 14.7236 26.6659 14.6299L26.2411 13.458L28.0077 12.4268C28.0609 12.396 28.0999 12.3457 28.1163 12.2865C28.1327 12.2274 28.1253 12.1641 28.0956 12.1104ZM8.57506 6.38867L8.58971 6.35059L8.60143 6.3125C8.63366 6.21582 8.72155 6.15137 8.82409 6.15137H21.3514L23.5604 12.2451H6.44518L8.57506 6.38867ZM24.6092 22.0889H5.39049V15.1455L5.84752 13.8857H24.1522L24.6092 15.1455V22.0889Z" fill="#060709"/>
<path d="M6.5625 17.0215C6.5625 17.3323 6.68597 17.6304 6.90573 17.8501C7.1255 18.0699 7.42357 18.1934 7.73438 18.1934C8.04518 18.1934 8.34325 18.0699 8.56302 17.8501C8.78278 17.6304 8.90625 17.3323 8.90625 17.0215C8.90625 16.7107 8.78278 16.4126 8.56302 16.1928C8.34325 15.9731 8.04518 15.8496 7.73438 15.8496C7.42357 15.8496 7.1255 15.9731 6.90573 16.1928C6.68597 16.4126 6.5625 16.7107 6.5625 17.0215ZM18.8672 17.6953H17.6953C17.5664 17.6953 17.4609 17.8008 17.4609 17.9297V18.9844H12.5391V17.9297C12.5391 17.8008 12.4336 17.6953 12.3047 17.6953H11.1328C11.0039 17.6953 10.8984 17.8008 10.8984 17.9297V20.3906C10.8984 20.5195 11.0039 20.625 11.1328 20.625H18.8672C18.9961 20.625 19.1016 20.5195 19.1016 20.3906V17.9297C19.1016 17.8008 18.9961 17.6953 18.8672 17.6953Z" fill="#060709"/>
</svg>
