<svg width="12" height="11" viewBox="0 0 12 11" fill="none" xmlns="http://www.w3.org/2000/svg">
<path fill-rule="evenodd" clip-rule="evenodd" d="M0 0H11.6874V11H0V0ZM0.973954 0.916667V1.83333H10.7135V0.916667H0.973954ZM10.7135 2.75H8.27861V4.58333H10.7135V2.75ZM10.7135 5.5H8.27861V7.33333H10.7135V5.5ZM10.7135 8.25H8.27861V10.0833H10.7135V8.25ZM7.30466 10.0833V8.25H4.38279V10.0833H7.30466ZM3.40884 10.0833V8.25H0.973954V10.0833H3.40884ZM0.973954 7.33333H3.40884V5.5H0.973954V7.33333ZM0.973954 4.58333H3.40884V2.75H0.973954V4.58333ZM4.38279 2.75V4.58333H7.30466V2.75H4.38279ZM7.30466 5.5H4.38279V7.33333H7.30466V5.5Z" fill="#060709" fill-opacity="0.3"/>
</svg>
