<svg width="24" height="24" viewBox="0 0 24 24" fill="none" xmlns="http://www.w3.org/2000/svg">
<path d="M12 9C13.211 9 14.381 9.355 15.297 10.004C16.598 10.924 17.727 12.128 18.462 13C17.727 13.872 16.598 15.077 15.296 15.996C14.381 16.645 13.211 17 12 17C10.789 17 9.618 16.645 8.701 15.996C7.4 15.076 6.271 13.872 5.537 13C6.271 12.128 7.4 10.924 8.701 10.005C9.618 9.355 10.789 9 12 9ZM12 7C10.309 7 8.758 7.516 7.547 8.371C4.928 10.223 3 13 3 13C3 13 4.928 15.777 7.547 17.629C8.758 18.484 10.309 19 12 19C13.691 19 15.242 18.484 16.451 17.629C19.07 15.777 21 13 21 13C21 13 19.07 10.223 16.451 8.371C15.242 7.516 13.691 7 12 7ZM12 12C11.447 12 11 12.447 11 13C11 13.551 11.447 14 12 14C12.551 14 13 13.551 13 13C13 12.447 12.551 12 12 12ZM12 16C10.346 16 9 14.654 9 13C9 11.346 10.346 10 12 10C13.654 10 15 11.346 15 13C15 14.654 13.654 16 12 16ZM12 11C10.896 11 10 11.896 10 13C10 14.104 10.896 15 12 15C13.104 15 14 14.104 14 13C14 11.896 13.104 11 12 11Z" fill="#060709"/>
</svg>
