<svg width="13" height="13" viewBox="0 0 13 13" fill="none" xmlns="http://www.w3.org/2000/svg">
<path d="M12.6612 3.0365L9.93272 0.308713C9.72662 0.10267 9.45581 0 9.18641 0C8.9163 0 8.6469 0.10267 8.44081 0.308713L0.746308 8.00121C0.540211 8.20726 0.35381 8.51245 0.218758 8.83664C0.0837047 9.16223 0 9.51102 0 9.80216C0 11.5499 1.41761 12.9666 3.1653 12.9666C3.45651 12.9666 3.80399 12.883 4.12966 12.7479C4.45534 12.6129 4.75991 12.4266 4.96601 12.2205L12.6612 4.52802C12.8673 4.32198 12.97 4.05124 12.97 3.78191C12.97 3.51187 12.8673 3.24254 12.6612 3.0365ZM2.38042 9.22352C2.14107 8.98424 2.14107 8.59621 2.38042 8.35693L7.34713 3.39151C7.58639 3.15231 7.97424 3.15231 8.21349 3.39151C8.45284 3.63079 8.45284 4.01881 8.21349 4.2581L3.24678 9.22352C3.00753 9.46272 2.61968 9.46272 2.38042 9.22352ZM3.1653 11.5602H2.60742C2.28905 11.5602 1.98372 11.4337 1.75857 11.2087C1.53334 10.9835 1.4068 10.6781 1.4068 10.3596V9.80216C1.4068 9.74801 1.43001 9.58767 1.51794 9.37671C1.52322 9.36615 2.6969 10.536 3.28162 11.1198C3.43578 11.2737 3.38315 11.5602 3.1653 11.5602ZM4.61068 10.5871C4.37142 10.8263 3.98357 10.8263 3.74431 10.5871C3.50497 10.3478 3.50497 9.95975 3.74431 9.72047L8.71102 4.75505C8.95028 4.51585 9.33813 4.51585 9.57739 4.75505C9.81673 4.99433 9.81673 5.38235 9.57739 5.62164L4.61068 10.5871ZM10.9624 4.23623C10.7116 4.48745 10.3045 4.48761 10.0534 4.23658L8.73171 2.91524C8.48055 2.66414 8.48055 2.25697 8.73171 2.00588C8.98283 1.75483 9.38993 1.75489 9.64097 2.00603L10.9622 3.32779C11.213 3.57865 11.2131 3.98525 10.9624 4.23623Z" fill="#060709"/>
</svg>
