<svg width="20" height="20" viewBox="0 0 20 20" fill="none" xmlns="http://www.w3.org/2000/svg">
<path fill-rule="evenodd" clip-rule="evenodd" d="M15.0007 2.01291C15.0001 2.01315 14.9981 2.01405 14.9946 2.01751L13.2618 3.75033L16.2499 6.73848L17.9828 5.00566C17.9845 5.00393 17.9853 5.00275 17.9857 5.00217L17.9865 5.00072C17.9867 5.00026 17.9869 4.99974 17.987 4.99919L15.0007 2.01291ZM15.0714 7.91699L12.0833 4.92884L4.07521 12.9369L3.34332 15.4985L4.50173 16.6569L7.06337 15.925L15.0714 7.91699ZM13.8161 0.838995C14.4621 0.193008 15.5166 0.171832 16.1773 0.832548L19.1677 3.82293C19.8236 4.47883 19.81 5.53542 19.1613 6.18417L7.9365 17.4089L0.453247 19.547L2.59132 12.0638L13.8161 0.838995ZM13.0892 8.08958L6.42252 14.7563L5.24401 13.5777L11.9107 6.91107L13.0892 8.08958Z" fill="black"/>
</svg>
