<svg width="11" height="11" viewBox="0 0 11 11" fill="none" xmlns="http://www.w3.org/2000/svg">
<path d="M2.19671 4.47541C2.58572 3.18021 3.69346 2.25 5.00556 2.25C5.71088 2.25 6.34794 2.525 6.8485 2.975L8.30464 1.375C7.4173 0.525 6.27969 0 5.00556 0C3.03258 0 1.33391 1.23672 0.517273 3.04793L2.19671 4.47541Z" fill="#060709"/>
<path d="M6.69104 8.25588C6.23645 8.57841 5.6588 8.75011 5.00554 8.75011C3.69847 8.75011 2.59418 7.82701 2.20119 6.53955L0.516205 7.94531C1.33182 9.75969 3.03045 11.0001 5.00554 11.0001C6.2289 11.0001 7.39791 10.5222 8.27339 9.62492L6.69104 8.25588Z" fill="#060709"/>
<path d="M8.2734 9.62456C9.18898 8.68613 9.78355 7.28893 9.78355 5.49976C9.78355 5.17476 9.73804 4.82476 9.66978 4.49976H5.00555V6.62476H7.69033C7.55785 7.33933 7.20227 7.89281 6.69105 8.25553L8.2734 9.62456Z" fill="#060709"/>
<path d="M2.20117 6.53937C2.10162 6.21324 2.04771 5.86373 2.04771 5.49992C2.04771 5.14163 2.1 4.79721 2.19667 4.47533L0.517233 3.04785C0.182112 3.78596 0 4.61781 0 5.49992C0 6.37972 0.18553 7.20959 0.516178 7.94513L2.20117 6.53937Z" fill="#060709"/>
</svg>
