<svg width="24" height="24" viewBox="0 0 24 24" fill="none" xmlns="http://www.w3.org/2000/svg">
<path d="M0.752328 9.84219L0.752328 9.84222C0.828429 13.6115 3.20109 16.9665 5.89398 19.4287C7.22926 20.6495 8.61292 21.622 9.76375 22.2855C10.3395 22.6175 10.8477 22.8667 11.2546 23.0306C11.6892 23.2056 11.9287 23.25 12 23.25C12.0713 23.25 12.3108 23.2056 12.7454 23.0306C13.1522 22.8667 13.6604 22.6175 14.2361 22.2855C15.3868 21.622 16.7703 20.6495 18.1056 19.4287C20.7983 16.9666 23.171 13.6115 23.2477 9.84219C23.3211 6.21161 21.6538 3.16679 19.3852 1.69762L0.752328 9.84219ZM0.752328 9.84219C0.678897 6.21205 2.34583 3.16851 4.61459 1.69779L0.752328 9.84219ZM12 2.79486L11.4972 2.34052C9.27628 0.333748 6.69735 0.350674 4.61473 1.69769L12 2.79486ZM12 2.79486L12.5028 2.34052M12 2.79486L12.5028 2.34052M12.5028 2.34052C14.724 0.333535 17.3028 0.34957 19.3851 1.69757L12.5028 2.34052Z" stroke="black" stroke-width="1.5"/>
</svg>
