<svg width="20" height="21" viewBox="0 0 20 21" fill="none" xmlns="http://www.w3.org/2000/svg">
<path fill-rule="evenodd" clip-rule="evenodd" d="M9.33216 1.20003C9.71213 0.859105 10.2879 0.859105 10.6678 1.20003C12.8274 3.13776 15.6676 4.13961 18.565 3.98574C19.0401 3.96051 19.4672 4.27356 19.5862 4.73425C19.856 5.77884 20 6.87284 20 8.00034C20 14.0596 15.8564 19.1478 10.2492 20.5908C10.0857 20.6329 9.91427 20.6329 9.75078 20.5908C4.14358 19.1478 3.6624e-06 14.0586 3.6624e-06 8.00034H1L3.96042e-06 8.00115C3.722e-06 8.00088 3.84121e-06 8.00061 3.6624e-06 8.00034C-0.000822756 6.89851 0.138215 5.80104 0.413784 4.73423C0.532784 4.27355 0.959901 3.96051 1.43503 3.98574C4.33245 4.13961 7.17256 3.13776 9.33216 1.20003ZM2.18125 6.00013C2.06022 6.65915 1.99946 7.32839 2 7.99952L2 8.00034C2 13.034 5.38222 17.281 10 18.5866C14.6178 17.281 18 13.0349 18 8.00034C18 7.31654 17.9376 6.64833 17.8187 6.00013C14.9817 5.96403 12.234 4.99693 10 3.24852C7.76597 4.99694 5.01825 5.96405 2.18125 6.00013ZM10 7.00034C10.5523 7.00034 11 7.44805 11 8.00034V10.0003C11 10.5526 10.5523 11.0003 10 11.0003C9.44772 11.0003 9 10.5526 9 10.0003V8.00034C9 7.44805 9.44772 7.00034 10 7.00034ZM9 14.0003C9 13.4481 9.44772 13.0003 10 13.0003H10.01C10.5623 13.0003 11.01 13.4481 11.01 14.0003C11.01 14.5526 10.5623 15.0003 10.01 15.0003H10C9.44772 15.0003 9 14.5526 9 14.0003Z" fill="#060709"/>
</svg>
