<svg width="18" height="20" viewBox="0 0 18 20" fill="none" xmlns="http://www.w3.org/2000/svg">
<path d="M1.24755 17.514C1.24755 17.8137 1.49051 18.0567 1.79023 18.0567H5.3108C5.61052 18.0567 5.85348 17.8137 5.85348 17.514V11.4148C5.85348 11.1151 6.09645 10.8721 6.39617 10.8721H11.0695C11.3692 10.8721 11.6121 11.1151 11.6121 11.4148V17.514C11.6121 17.8137 11.8551 18.0567 12.1548 18.0567H15.6754C15.9751 18.0567 16.2181 17.8137 16.2181 17.514V7.34083C16.2181 7.16882 16.1365 7.00699 15.9983 6.90465L9.0557 1.76532C8.86387 1.62331 8.60177 1.62331 8.40993 1.76532L1.46734 6.90465C1.32909 7.00699 1.24755 7.16882 1.24755 7.34083V17.514ZM0.542683 19.2777C0.242967 19.2777 0 19.0348 0 18.735V6.7305C0 6.55839 0.0816498 6.39647 0.220048 6.29414L8.41018 0.238549C8.60191 0.0967865 8.86372 0.0967869 9.05545 0.238549L17.2456 6.29414C17.384 6.39647 17.4656 6.55839 17.4656 6.7305V18.735C17.4656 19.0348 17.2227 19.2777 16.9229 19.2777H10.9073C10.6076 19.2777 10.3646 19.0348 10.3646 18.735V12.6358C10.3646 12.3361 10.1216 12.0931 9.82192 12.0931H7.64371C7.34399 12.0931 7.10103 12.3361 7.10103 12.6358V18.735C7.10103 19.0348 6.85806 19.2777 6.55834 19.2777H0.542683Z" fill="#FFCC06"/>
</svg>
