<svg width="19" height="21" viewBox="0 0 19 21" fill="none" xmlns="http://www.w3.org/2000/svg">
<path d="M2.24755 18.514C2.24755 18.8137 2.49051 19.0567 2.79023 19.0567H6.3108C6.61052 19.0567 6.85348 18.8137 6.85348 18.514V12.4148C6.85348 12.1151 7.09645 11.8721 7.39616 11.8721H12.0695C12.3692 11.8721 12.6121 12.1151 12.6121 12.4148V18.514C12.6121 18.8137 12.8551 19.0567 13.1548 19.0567H16.6754C16.9751 19.0567 17.2181 18.8137 17.2181 18.514V8.34083C17.2181 8.16882 17.1365 8.00699 16.9983 7.90465L10.0557 2.76532C9.86386 2.62331 9.60177 2.62331 9.40993 2.76532L2.46734 7.90465C2.32909 8.00699 2.24755 8.16882 2.24755 8.34083V18.514ZM1.54268 20.2777C1.24297 20.2777 1 20.0348 1 19.735V7.7305C1 7.55839 1.08165 7.39647 1.22005 7.29414L9.41018 1.23855C9.60191 1.09679 9.86372 1.09679 10.0555 1.23855L18.2456 7.29414C18.384 7.39647 18.4656 7.55839 18.4656 7.7305V19.735C18.4656 20.0348 18.2227 20.2777 17.9229 20.2777H11.9073C11.6076 20.2777 11.3646 20.0348 11.3646 19.735V13.6358C11.3646 13.3361 11.1216 13.0931 10.8219 13.0931H8.64371C8.34399 13.0931 8.10103 13.3361 8.10103 13.6358V19.735C8.10103 20.0348 7.85806 20.2777 7.55834 20.2777H1.54268Z" fill="#FFCC06" stroke="#FFCC06"/>
</svg>
