<svg width="24" height="24" viewBox="0 0 24 24" fill="none" xmlns="http://www.w3.org/2000/svg">
<path d="M12 14C14.764 14 17 11.762 17 9C17 6.238 14.764 4 12 4C9.236 4 7 6.238 7 9C7 11.762 9.236 14 12 14ZM12 6C13.654 6 15 7.346 15 9C15 10.654 13.654 12 12 12C10.346 12 9 10.654 9 9C9 7.346 10.346 6 12 6ZM20 15C21.381 15 22.5 13.883 22.5 12.5C22.5 11.119 21.381 10 20 10C18.618 10 17.5 11.119 17.5 12.5C17.5 13.883 18.618 15 20 15ZM20 11C20.827 11 21.5 11.673 21.5 12.5C21.5 13.327 20.827 14 20 14C19.173 14 18.5 13.327 18.5 12.5C18.5 11.673 19.173 11 20 11ZM20 15.59C18.669 15.59 17.668 15.996 17.083 16.559C15.968 15.641 14.205 15 12 15C9.734 15 8.005 15.648 6.908 16.564C6.312 15.999 5.3 15.589 4 15.589C1.812 15.589 0.5 16.68 0.5 17.772C0.5 18.317 1.812 18.864 4 18.864C4.604 18.864 5.146 18.813 5.623 18.731L5.583 19.001C5.583 20.001 7.988 21.001 12 21.001C15.762 21.001 18.417 20.001 18.417 19.001L18.396 18.746C18.859 18.819 19.392 18.864 20 18.864C22.051 18.864 23.5 18.317 23.5 17.772C23.5 16.68 22.127 15.59 20 15.59ZM4 17.863C2.691 17.863 1.932 17.656 1.583 17.509C1.822 17.104 2.586 16.589 4 16.589C5.107 16.589 5.837 16.94 6.208 17.295L5.973 17.639C5.521 17.758 4.865 17.863 4 17.863ZM12 19C9.837 19 8.499 18.688 7.816 18.439C8.337 17.761 9.734 17 12 17C14.169 17 15.59 17.761 16.148 18.425C15.393 18.695 13.986 19 12 19ZM20 17.863C19.086 17.863 18.454 17.76 18.027 17.65C17.955 17.523 17.872 17.398 17.779 17.275C18.135 16.93 18.85 16.59 20 16.59C21.324 16.59 22.141 17.091 22.404 17.501C22.014 17.664 21.199 17.863 20 17.863ZM4 15C5.381 15 6.5 13.881 6.5 12.5C6.5 11.121 5.381 10 4 10C2.618 10 1.5 11.121 1.5 12.5C1.5 13.881 2.618 15 4 15ZM4 11C4.827 11 5.5 11.673 5.5 12.5C5.5 13.327 4.827 14 4 14C3.173 14 2.5 13.327 2.5 12.5C2.5 11.673 3.173 11 4 11Z" fill="#060709"/>
</svg>
