<svg width="16" height="19" viewBox="0 0 16 19" fill="none" xmlns="http://www.w3.org/2000/svg">
<path d="M13.657 2.30377C10.533 -0.769227 5.46798 -0.769227 2.34398 2.30377C-0.780024 5.37777 -0.780024 10.3608 2.34398 13.4338L7.99998 18.9988L13.657 13.4338C16.781 10.3608 16.781 5.37777 13.657 2.30377ZM7.99998 10.4988C7.33198 10.4988 6.70498 10.2388 6.23198 9.76677C5.25698 8.79177 5.25698 7.20577 6.23198 6.23077C6.70398 5.75877 7.33198 5.49877 7.99998 5.49877C8.66798 5.49877 9.29598 5.75877 9.76798 6.23077C10.743 7.20577 10.743 8.79277 9.76798 9.76677C9.29598 10.2388 8.66798 10.4988 7.99998 10.4988Z" fill="#060709"/>
</svg>
