<svg width="24" height="24" viewBox="0 0 24 24" fill="none" xmlns="http://www.w3.org/2000/svg">
<path d="M12 5C13.609 5 15.12 5.614 16.254 6.73C17.38 7.837 18 9.309 18 10.87C18 12.431 17.38 13.9 16.255 15.009L12 19.193L7.746 15.007C6.621 13.9 6.001 12.431 6.001 10.868C6.001 9.305 6.621 7.836 7.746 6.727C8.881 5.614 10.393 5 12 5ZM12 3C9.953 3 7.904 3.768 6.343 5.305C3.219 8.379 3.219 13.362 6.343 16.436L12 21.999L17.657 16.434C20.781 13.362 20.781 8.378 17.657 5.305C16.096 3.768 14.048 3 12 3ZM12 8.499C12.668 8.499 13.296 8.759 13.768 9.23C14.744 10.206 14.744 11.792 13.768 12.767C13.295 13.239 12.668 13.498 12 13.498C11.332 13.498 10.705 13.238 10.232 12.767C9.256 11.791 9.256 10.205 10.232 9.23C10.705 8.759 11.333 8.499 12 8.499ZM12 7.499C11.104 7.499 10.208 7.841 9.525 8.523C8.158 9.89 8.158 12.107 9.525 13.474C10.209 14.158 11.103 14.498 12 14.498C12.897 14.498 13.792 14.156 14.475 13.474C15.841 12.107 15.841 9.89 14.475 8.523C13.792 7.84 12.896 7.499 12 7.499Z" fill="#060709"/>
</svg>
