<svg width="14" height="14" viewBox="0 0 14 14" fill="none" xmlns="http://www.w3.org/2000/svg">
<path d="M11.375 4.26562H9.51562V4.04688C9.51562 2.65781 8.38906 1.53125 7 1.53125C5.61094 1.53125 4.48438 2.65781 4.48438 4.04688V4.26562H2.625C2.38301 4.26562 2.1875 4.46113 2.1875 4.70312V12.0312C2.1875 12.2732 2.38301 12.4688 2.625 12.4688H11.375C11.617 12.4688 11.8125 12.2732 11.8125 12.0312V4.70312C11.8125 4.46113 11.617 4.26562 11.375 4.26562ZM8.53125 4.26562H5.46875V4.04688C5.46875 3.20059 6.15371 2.51562 7 2.51562C7.84629 2.51562 8.53125 3.20059 8.53125 4.04688V4.26562Z" fill="white"/>
</svg>
