<svg width="21" height="21" viewBox="0 0 21 21" fill="none" xmlns="http://www.w3.org/2000/svg">
<path d="M18.2171 15.5326H17.1138C17.0276 15.5326 16.9559 15.6044 16.9559 15.6905V16.9579H4.04209V4.04209H16.9579V5.30947C16.9579 5.39561 17.0297 5.46738 17.1158 5.46738H18.2191C18.3053 5.46738 18.3771 5.39766 18.3771 5.30947V3.25459C18.3771 2.90596 18.0961 2.625 17.7475 2.625H3.25459C2.90596 2.625 2.625 2.90596 2.625 3.25459V17.7454C2.625 18.094 2.90596 18.375 3.25459 18.375H17.7454C18.094 18.375 18.375 18.094 18.375 17.7454V15.6905C18.375 15.6023 18.3032 15.5326 18.2171 15.5326ZM18.5985 10.3708L15.6885 8.07393C15.5798 7.98779 15.4219 8.06572 15.4219 8.20312V9.76172H8.98242C8.89219 9.76172 8.81836 9.83555 8.81836 9.92578V11.0742C8.81836 11.1645 8.89219 11.2383 8.98242 11.2383H15.4219V12.7969C15.4219 12.9343 15.5818 13.0122 15.6885 12.9261L18.5985 10.6292C18.6181 10.6139 18.634 10.5942 18.6449 10.5719C18.6558 10.5495 18.6615 10.5249 18.6615 10.5C18.6615 10.4751 18.6558 10.4505 18.6449 10.4281C18.634 10.4058 18.6181 10.3861 18.5985 10.3708Z" fill="#C81818" fill-opacity="0.72"/>
</svg>
