<svg width="11" height="15" viewBox="0 0 11 15" fill="none" xmlns="http://www.w3.org/2000/svg">
<path d="M9.41973 4.16667C9.41973 3.01583 8.94018 1.97417 8.16605 1.22083C7.39107 0.466667 6.32064 0 5.13804 0C3.95543 0 2.88501 0.466667 2.11002 1.22083C1.33589 1.97417 0.856339 3.01583 0.856339 4.16667C0.856339 5.3175 1.33589 6.35917 2.11002 7.1125C2.88501 7.86667 3.95543 8.33333 5.13804 8.33333C6.32064 8.33333 7.39107 7.86667 8.16605 7.1125C8.94018 6.35917 9.41973 5.3175 9.41973 4.16667ZM0 12.5C0 13.3333 1.92676 14.1667 5.13804 14.1667C8.15064 14.1667 10.2761 13.3333 10.2761 12.5C10.2761 10.8333 8.26025 9.16667 5.13804 9.16667C1.92676 9.16667 0 10.8333 0 12.5Z" fill="#060709" fill-opacity="0.3"/>
</svg>
