<svg width="24" height="24" viewBox="0 0 24 24" fill="none" xmlns="http://www.w3.org/2000/svg">
<path d="M19.715 17.301C19.698 17.283 17.998 15.447 17.985 10.981C17.976 8.374 16.295 6.157 13.966 5.34L14 5C14 3.897 13.104 3 12 3C10.896 3 9.99998 3.897 9.99998 5L10.034 5.338C7.69798 6.154 6.01498 8.374 6.01498 10.984C6.01498 15.446 4.30398 17.28 4.29398 17.29C4.00698 17.576 3.91998 18.006 4.07398 18.381C4.22798 18.756 4.59498 19 4.99998 19H8.14298C8.58998 20.72 10.142 22 12 22C13.858 22 15.41 20.72 15.857 19H19C19.4 19 19.758 18.757 19.915 18.39C20.072 18.023 19.991 17.591 19.715 17.301ZM12 7C14.189 7 15.978 8.789 15.984 10.987C15.986 11.715 16.03 12.383 16.102 13H7.90198C7.97298 12.383 8.01498 11.714 8.01498 10.984C8.01598 8.788 9.80298 7 12 7ZM12 20C11.263 20 10.625 19.595 10.278 19H13.721C13.375 19.595 12.737 20 12 20ZM6.81398 17C7.16598 16.264 7.51898 15.269 7.75198 14H16.254C16.488 15.269 16.842 16.264 17.192 17H6.81398Z" fill="#060709"/>
</svg>
