<svg width="22" height="24" viewBox="0 0 22 24" fill="none" xmlns="http://www.w3.org/2000/svg">
<path fill-rule="evenodd" clip-rule="evenodd" d="M20.6884 7.05412C19.5705 12.0266 16.0068 14.6584 10.3515 14.6584H8.30077L6.77132 24.0004H10.0975C10.5781 24.0004 10.9865 23.6659 11.0618 23.2121L11.101 23.0141L11.8661 18.3776L11.9155 18.1219C11.9899 17.6681 12.3991 17.3336 12.8789 17.3336H13.4865C17.4163 17.3336 20.494 15.8059 21.3932 11.3884C21.7538 9.61538 21.5805 8.12887 20.6884 7.05412ZM18.4127 1.80975C17.2509 0.543 15.1515 0 12.465 0H4.66961C4.12008 0 3.65286 0.3825 3.56662 0.90075L0.320378 20.5972C0.256095 20.9858 0.570451 21.3375 0.982013 21.3375H5.79455L7.00337 14.0025L6.96574 14.232C7.05197 13.7138 7.51605 13.3313 8.0648 13.3313H10.3515C14.845 13.3313 18.3625 11.5852 19.3902 6.53475C19.4208 6.38475 19.4702 6.0975 19.4702 6.0975C19.7618 4.2285 19.4678 2.96025 18.4127 1.80975Z" fill="#060709"/>
</svg>
