<svg width="40" height="56" viewBox="0 0 40 56" fill="none" xmlns="http://www.w3.org/2000/svg">
<path d="M36.2349 16.493C36.2349 11.9955 34.4111 7.9246 31.467 4.98054C28.5197 2.03323 24.4489 0.209473 19.9513 0.209473C15.4538 0.209473 11.383 2.03323 8.43565 4.98054C5.49159 7.9246 3.66784 11.9955 3.66784 16.493C3.66784 20.9905 5.49159 25.0614 8.43565 28.0054C11.383 30.9527 15.4538 32.7765 19.9513 32.7765C24.4489 32.7765 28.5197 30.9527 31.467 28.0054C34.4111 25.0614 36.2349 20.9905 36.2349 16.493ZM0.411133 49.06C0.411133 52.3167 7.73871 55.5734 19.9513 55.5734C31.4084 55.5734 39.4916 52.3167 39.4916 49.06C39.4916 42.5466 31.8253 36.0332 19.9513 36.0332C7.73871 36.0332 0.411133 42.5466 0.411133 49.06Z" fill="#060709"/>
</svg>
