<svg width="24" height="22" viewBox="0 0 24 22" fill="none" xmlns="http://www.w3.org/2000/svg">
<path d="M12 10.7499C13.25 10.2499 12.875 8.49992 12 7.74992C10.625 6.62492 8.62496 7.24992 7.74996 8.74992C5.87496 11.7499 8.87496 14.9999 12 14.8749C15.375 14.6249 17.375 11.2499 16.625 8.12492C15.75 4.37492 11.75 2.49992 8.24996 3.62492C4.99996 4.62492 2.99996 7.99992 3.24996 11.3749C3.62496 15.1249 6.49996 18.1249 10.125 18.7499C13.625 19.3749 17.25 17.7499 19.125 14.7499C20 13.3749 20.625 11.7499 20.625 9.99992C20.625 9.37492 21.25 8.74992 22 8.87492C23 8.87492 23.25 9.87492 23.125 10.6249C22.625 16.4999 17.5 21.3749 11.5 21.3749C4.12496 21.3749 -1.62504 13.6249 1.49996 6.62492C4.62496 -0.125082 14.375 -1.50008 18.125 5.12492C20 8.24992 19.625 12.3749 17 14.9999C14.5 17.4999 10.375 17.9999 7.37496 15.8749C4.62496 13.8749 3.74996 9.74992 5.99996 6.87492C8.12496 3.99992 12.875 3.87492 14.75 7.12492C16.125 9.49992 14.75 13.6249 11.625 13.2499C9.62496 13.2499 7.87496 11.1249 8.99996 9.24992C9.74996 8.12492 11.375 8.49992 11.875 9.37492C12.125 10.3749 12 10.7499 12 10.7499Z" fill="#060709"/>
</svg>
