<svg width="18" height="18" viewBox="0 0 18 18" fill="none" xmlns="http://www.w3.org/2000/svg">
<path fill-rule="evenodd" clip-rule="evenodd" d="M10.8333 6.25H7.16667C6.66067 6.25 6.25 6.66067 6.25 7.16667V10.8333C6.25 11.3393 6.66067 11.75 7.16667 11.75H10.8333C11.3393 11.75 11.75 11.3393 11.75 10.8333V7.16667C11.75 6.66067 11.3393 6.25 10.8333 6.25ZM13.5833 16.5H4.41667C2.80596 16.5 1.5 15.194 1.5 13.5833V4.41667C1.5 2.80596 2.80596 1.5 4.41667 1.5H13.5833C15.194 1.5 16.5 2.80596 16.5 4.41667V13.5833C16.5 15.194 15.194 16.5 13.5833 16.5ZM13.5833 18C16.0225 18 18 16.0225 18 13.5833V4.41667C18 1.97754 16.0225 0 13.5833 0H4.41667C1.97754 0 0 1.97754 0 4.41667V13.5833C0 16.0225 1.97754 18 4.41667 18H13.5833Z" fill="#060709"/>
</svg>
