<svg width="44" height="43" viewBox="0 0 44 43" fill="none" xmlns="http://www.w3.org/2000/svg">
<path fill-rule="evenodd" clip-rule="evenodd" d="M1 1H9.52225L10.8592 6.34783H42.4396L38.0821 25.9565H15.7614L16.6527 29.5217H38.4348V33.087H13.8691L6.73862 4.56522H1V1ZM14.8701 22.3913H35.2222L37.9952 9.91304H11.7505L14.8701 22.3913ZM13.4783 38.4348C13.4783 36.4654 15.0741 34.8696 17.0435 34.8696C19.0129 34.8696 20.6087 36.4654 20.6087 38.4348C20.6087 40.4042 19.0129 42 17.0435 42C15.0741 42 13.4783 40.4042 13.4783 38.4348ZM31.3043 38.4348C31.3043 36.4654 32.9002 34.8696 34.8696 34.8696C36.839 34.8696 38.4348 36.4654 38.4348 38.4348C38.4348 40.4042 36.839 42 34.8696 42C32.9002 42 31.3043 40.4042 31.3043 38.4348Z" fill="#060709" stroke="#060709"/>
</svg>
