<svg width="24" height="24" viewBox="0 0 24 24" fill="none" xmlns="http://www.w3.org/2000/svg">
<path fill-rule="evenodd" clip-rule="evenodd" d="M9.66659 2.66671C7.81007 2.66671 6.02959 3.40421 4.71684 4.71696C3.40408 6.02971 2.66659 7.81019 2.66659 9.66671C2.66659 10.586 2.84765 11.4962 3.19943 12.3455C3.55121 13.1948 4.06683 13.9664 4.71684 14.6165C5.36685 15.2665 6.13852 15.7821 6.9878 16.1339C7.83708 16.4856 8.74733 16.6667 9.66659 16.6667C10.5858 16.6667 11.4961 16.4856 12.3454 16.1339C13.1946 15.7821 13.9663 15.2665 14.6163 14.6165C15.2663 13.9664 15.782 13.1948 16.1337 12.3455C16.4855 11.4962 16.6666 10.586 16.6666 9.66671C16.6666 7.81019 15.9291 6.02972 14.6163 4.71696C13.3036 3.40421 11.5231 2.66671 9.66659 2.66671ZM3.06692 3.06704C4.81726 1.3167 7.19123 0.333374 9.66659 0.333374C12.1419 0.333374 14.5159 1.3167 16.2662 3.06704C18.0166 4.81738 18.9999 7.19135 18.9999 9.66671C18.9999 10.8924 18.7585 12.106 18.2895 13.2384C17.97 14.0097 17.5492 14.733 17.0394 15.3897L23.3249 21.6751C23.7805 22.1307 23.7805 22.8694 23.3249 23.325C22.8693 23.7806 22.1306 23.7806 21.675 23.325L15.3895 17.0396C14.7328 17.5493 14.0096 17.9701 13.2383 18.2896C12.1059 18.7586 10.8923 19 9.66659 19C8.44092 19 7.22725 18.7586 6.09487 18.2896C4.9625 17.8205 3.9336 17.1331 3.06692 16.2664C2.20024 15.3997 1.51275 14.3708 1.04371 13.2384C0.574666 12.106 0.333252 10.8924 0.333252 9.66671C0.333252 7.19135 1.31658 4.81738 3.06692 3.06704Z" fill="#060709"/>
</svg>
