<svg width="24" height="24" viewBox="0 0 24 24" fill="none" xmlns="http://www.w3.org/2000/svg">
<path d="M12 1.5L3 4.5V13.5C3 18.4711 7.02891 22.5 12 22.5C16.9711 22.5 21 18.4711 21 13.5V4.5L12 1.5ZM19.3125 13.5C19.3125 17.5383 16.0383 20.8125 12 20.8125C7.96172 20.8125 4.6875 17.5383 4.6875 13.5V5.76562L12 3.1875L19.3125 5.76562V13.5Z" fill="#060709"/>
<path d="M8.86869 11.1352C8.79049 11.0566 8.69754 10.9943 8.59518 10.9517C8.49281 10.9092 8.38306 10.8873 8.27221 10.8873C8.16136 10.8873 8.0516 10.9092 7.94924 10.9517C7.84688 10.9943 7.75393 11.0566 7.67572 11.1352C7.59716 11.2134 7.53483 11.3063 7.49229 11.4087C7.44975 11.511 7.42786 11.6208 7.42786 11.7316C7.42786 11.8425 7.44975 11.9522 7.49229 12.0546C7.53483 12.157 7.59716 12.2499 7.67572 12.3281L10.7085 15.3609L10.7578 15.4102C10.8317 15.4843 10.9196 15.5431 11.0163 15.5832C11.113 15.6233 11.2167 15.6439 11.3214 15.6439C11.4261 15.6439 11.5298 15.6233 11.6265 15.5832C11.7233 15.5431 11.8111 15.4843 11.8851 15.4102L17.1234 10.1719C17.1975 10.0979 17.2563 10.01 17.2964 9.91332C17.3365 9.8166 17.3572 9.71292 17.3572 9.6082C17.3572 9.50349 17.3365 9.39981 17.2964 9.30309C17.2563 9.20637 17.1975 9.1185 17.1234 9.04453L17.0578 8.97891C16.9838 8.9048 16.8959 8.846 16.7992 8.80588C16.7025 8.76577 16.5988 8.74512 16.4941 8.74512C16.3894 8.74512 16.2857 8.76577 16.189 8.80588C16.0922 8.846 16.0044 8.9048 15.9304 8.97891L11.3203 13.5867L8.86869 11.1352Z" fill="#060709"/>
</svg>
