<svg width="18" height="21" viewBox="0 0 18 21" fill="none" xmlns="http://www.w3.org/2000/svg">
<path d="M14.5587 16.0684L7.41253 11.9622L8.34461 11.408L8.96628 11.0526L9.58795 11.4071L11.1408 12.2951L12.3833 13.005L13.9371 13.893L15.1804 14.6037L16.1125 15.1363L14.5587 16.0684ZM11.7625 17.6879L4.63791 13.5601L6.19166 12.6721L13.3163 16.7791L11.7625 17.6879ZM8.9879 19.2857L1.86329 15.1804L3.41704 14.2924L10.5416 18.3986L8.9879 19.2857ZM1.24335 12.3176L8.36795 8.21232V10.0099L7.74628 10.3644L6.19253 11.2524L4.94918 11.9622L3.39629 12.8502L2.15381 13.561L1.24335 14.0927V12.3176ZM1.24335 9.09943L8.36795 4.99328V6.79172L1.24335 10.8754V9.09943ZM1.24335 5.88126L8.36795 1.7751V3.55106L1.24335 7.65722V5.88126ZM9.61043 1.7751L11.1642 2.66308V10.897L10.2321 10.3644L9.61043 10.0099V1.7751ZM12.3851 3.37295L13.9379 4.26093V12.4949L12.3842 11.6069L12.3851 3.37295ZM15.1813 4.99414L16.7342 5.88126V14.1152L15.1813 13.2272V4.99414ZM18 5.17139L16.7117 4.46066L15.1588 3.57354L13.9379 2.8412L12.3842 1.95321L11.1417 1.24248L9.58709 0.355366L8.96628 0L8.34461 0.355366L0 5.17139V15.5574L0.620809 15.9119L8.9879 20.7513L10.2312 20.0405L11.785 19.1534L13.0275 18.4436L14.5812 17.5556L15.8237 16.8457L17.3775 15.9577L17.9983 15.6024L18 5.17139Z" fill="#060709"/>
</svg>
