<svg width="25" height="24" viewBox="0 0 25 24" fill="none" xmlns="http://www.w3.org/2000/svg">
<path fill-rule="evenodd" clip-rule="evenodd" d="M21.4006 8.004C21.3453 8 21.2839 8 21.2195 8H18.6794C16.599 8 14.8193 9.628 14.8193 11.75C14.8193 13.872 16.6 15.5 18.6794 15.5H21.2195C21.2839 15.5 21.3453 15.5 21.4026 15.496C21.8302 15.4704 22.2338 15.2911 22.5383 14.9916C22.8428 14.6921 23.0273 14.2927 23.0575 13.868C23.0615 13.808 23.0615 13.743 23.0615 13.683V9.817C23.0615 9.757 23.0615 9.692 23.0575 9.632C23.0273 9.20726 22.8428 8.80793 22.5383 8.50842C22.2338 8.2089 21.8302 8.02963 21.4026 8.004M18.4571 12.75C18.9922 12.75 19.4258 12.302 19.4258 11.75C19.4258 11.198 18.9922 10.75 18.4571 10.75C17.9209 10.75 17.4873 11.198 17.4873 11.75C17.4873 12.302 17.9209 12.75 18.4571 12.75Z" fill="#060709"/>
<path fill-rule="evenodd" clip-rule="evenodd" d="M21.2177 17C21.2524 16.9986 21.2871 17.0054 21.3187 17.0198C21.3503 17.0342 21.3781 17.0558 21.3998 17.0829C21.4214 17.11 21.4364 17.1418 21.4434 17.1757C21.4503 17.2096 21.4492 17.2446 21.44 17.278C21.2388 17.99 20.9179 18.598 20.4038 19.108C19.6503 19.858 18.6956 20.189 17.5166 20.347C16.3697 20.5 14.906 20.5 13.0569 20.5H10.9323C9.08321 20.5 7.61847 20.5 6.47263 20.347C5.29359 20.189 4.33889 19.857 3.58539 19.109C2.8329 18.36 2.4989 17.411 2.33995 16.239C2.18604 15.099 2.18604 13.644 2.18604 11.806V11.694C2.18604 9.856 2.18604 8.4 2.33995 7.26C2.4989 6.088 2.8329 5.139 3.58539 4.39C4.33889 3.642 5.29359 3.31 6.47263 3.152C7.61947 3 9.08321 3 10.9323 3H13.0569C14.906 3 16.3707 3 17.5166 3.153C18.6956 3.311 19.6503 3.643 20.4038 4.391C20.9179 4.903 21.2388 5.51 21.44 6.222C21.4492 6.25537 21.4503 6.29042 21.4434 6.32432C21.4364 6.35822 21.4214 6.39 21.3998 6.41708C21.3781 6.44417 21.3503 6.46579 21.3187 6.4802C21.2871 6.4946 21.2524 6.50139 21.2177 6.5H18.6785C15.8245 6.5 13.3094 8.74 13.3094 11.75C13.3094 14.76 15.8245 17 18.6785 17H21.2177ZM5.95856 7C5.75845 7 5.56654 7.07902 5.42504 7.21967C5.28355 7.36032 5.20405 7.55109 5.20405 7.75C5.20405 7.94891 5.28355 8.13968 5.42504 8.28033C5.56654 8.42098 5.75845 8.5 5.95856 8.5H9.98258C10.1827 8.5 10.3746 8.42098 10.5161 8.28033C10.6576 8.13968 10.7371 7.94891 10.7371 7.75C10.7371 7.55109 10.6576 7.36032 10.5161 7.21967C10.3746 7.07902 10.1827 7 9.98258 7H5.95856Z" fill="#060709"/>
</svg>
